HIERARCHY
ROOT Hips
{
	OFFSET 0.00000 0.00000 0.00000
	CHANNELS 6 Xposition Yposition Zposition Yrotation Zrotation Xrotation 
	JOINT Lumbar
	{
		OFFSET 0 0 0
		CHANNELS 3 Zrotation Xrotation Yrotation
		JOINT Neck
		{
			OFFSET 0.00 0.2701 0.00
			CHANNELS 3 Zrotation Xrotation Yrotation
			End Site
			{
				OFFSET 0.00 0.1379 0.00
			}
		}
		JOINT RightShoulder
		{
			OFFSET 0.0119 0.2289 0.1181
			CHANNELS 3 Zrotation Xrotation Yrotation
			JOINT RightElbow
			{
				OFFSET 0.00 -0.1475 0.00
				CHANNELS 2 Zrotation Yrotation
				JOINT RightWrist
				{
					OFFSET 0.00 -0.1605 0.00
					CHANNELS 2 Zrotation Xrotation
					End Site
					{
						OFFSET 0.0040 -0.1068 0.0006
					}
				}
			}
		}
		JOINT LeftShoulder
		{
			OFFSET 0.0119 0.2289 -0.1181
			CHANNELS 3 Zrotation Xrotation Yrotation
			JOINT LeftElbow
			{
				OFFSET 0.00 -0.1475 0.00
				CHANNELS 2 Zrotation Yrotation
				JOINT LeftWrist
				{
					OFFSET 0.00 -0.1605 0.00
					CHANNELS 2 Zrotation Xrotation
					End Site
					{
						OFFSET 0.0040 -0.1068 -0.0006
					}
				}
			}
		}
	}
	JOINT RightHip
	{
		OFFSET 0.0316 -0.0424 0.0458
		CHANNELS 3 Zrotation Xrotation Yrotation
		JOINT RightKnee
		{
			OFFSET 0.00 -0.2438 0.00
			CHANNELS 1 Zrotation
			JOINT RightAnkle
			{
				OFFSET 0.00 -0.2449 0.00
				CHANNELS 3 Zrotation Xrotation Yrotation
				End Site
				{
					OFFSET 0.1237 -0.0542 0.0051
				}
			}
		}
	}
	JOINT LeftHip
	{
		OFFSET 0.0316 -0.0424 -0.0458
		CHANNELS 3 Zrotation Xrotation Yrotation
		JOINT LeftKnee
		{
			OFFSET 0.00 -0.2438 0.00
			CHANNELS 1 Zrotation
			JOINT LeftAnkle
			{
				OFFSET 0.00 -0.2449 0.00
				CHANNELS 3 Zrotation Xrotation Yrotation
				End Site
				{
					OFFSET 0.1237 -0.0542 -0.0051
				}
			}
		}
	}
}
MOTION
Frames: 16
Frame Time: 0.02
-0.62575 -0.31143 0.25912 388.45637 5.51856 -2.8665 13.96987 -1.41285 -1.31638 8.88726 -6.43173 -2.11994 36.18855 14.89864 31.29434 127.86678 75.6986 18.15282 -4.2567 28.69072 -8.50494 8.34726 14.53133 -45.55072 -24.65621 -3.96738 112.77888 -10.5849 -1.94766 -120.69233 -15.75218 -0.60903 -2.91849 80.94322 10.38877 1.13583 -56.35784 -17.60668 1.34883 3.39586
-0.62517 -0.31077 0.25857 388.49777 5.11104 -2.96865 14.26124 -1.36277 -1.22053 8.8767 -6.21706 -2.11994 36.29467 14.8938 31.0628 127.89038 75.48676 18.32053 -4.26012 27.17317 -8.12111 5.78393 16.7881 -48.60951 -23.51989 -3.5324 112.83457 -10.61978 -1.96283 -121.7955 -15.65011 -0.57645 -2.89548 80.79069 10.32084 0.72969 -54.60037 -17.81604 1.29806 3.3801
-0.62446 -0.30995 0.25795 388.5191 4.64409 -3.06903 14.5871 -1.30601 -1.11442 8.92309 -6.00314 -2.11994 36.47525 14.88856 30.82681 127.89976 75.2425 18.50798 -4.2505 25.2622 -7.60114 2.26632 19.64365 -52.55124 -21.94433 -2.99768 112.83785 -10.64625 -1.8521 -122.87077 -15.46507 -0.55183 -2.87308 80.62469 10.25499 0.31065 -52.85168 -18.01743 1.25427 3.36801
-0.6238 -0.3092 0.25735 388.54745 4.20593 -3.17236 14.89339 -1.25109 -1.01697 8.94663 -5.78527 -2.11994 36.62053 14.88356 30.59397 127.91819 75.01561 18.68102 -4.2481 23.55834 -7.15182 -0.71759 22.17386 -55.96535 -20.62646 -2.52385 112.86491 -10.6721 -1.78928 -123.95349 -15.31879 -0.5202 -2.84888 80.461 10.19111 -0.10146 -51.11832 -18.21823 1.20848 3.35464
-0.62317 -0.30845 0.25679 388.58509 3.75586 -3.26737 15.2203 -1.20097 -0.90246 8.95743 -5.58286 -2.11994 36.77487 14.87831 30.35331 127.92412 74.77819 18.87727 -4.24045 21.72797 -6.66923 -4.11093 24.93502 -59.91897 -19.06548 -1.98272 112.88601 -10.71557 -1.76147 -125.05879 -15.16564 -0.50214 -2.83061 80.31533 10.11067 -0.52955 -49.29759 -18.4369 1.15715 3.33936
-0.62244 -0.30767 0.25613 388.59881 3.31912 -3.37905 15.50986 -1.13913 -0.8219 9.00776 -5.34809 -2.11994 36.92579 14.8735 30.12942 127.95345 74.55391 19.03072 -4.24062 20.0723 -6.22248 -6.88162 27.35245 -62.9604 -17.90324 -1.55828 112.91019 -10.72116 -1.63241 -126.10782 -15.00923 -0.45833 -2.80053 80.12749 10.06736 -0.91937 -47.66547 -18.61435 1.11926 3.32893
-0.62148 -0.30685 0.2552 388.54675 2.92197 -3.53657 15.6998 -1.0497 -0.82773 9.15967 -5.02686 -2.11994 37.0623 14.86973 29.94866 128.04967 74.38541 19.0489 -4.26481 18.97193 -5.90394 -7.71755 28.70467 -63.21485 -17.98073 -1.48568 112.94631 -10.61937 -1.25548 -127.03873 -14.84885 -0.33731 -2.73514 79.83631 10.11986 -1.2463 -46.52422 -18.70642 1.11653 3.3322
-0.62043 -0.30601 0.25416 388.47201 2.54299 -3.71083 15.84809 -0.94833 -0.86955 9.34823 -4.6726 -2.11994 37.1898 14.86645 29.78617 128.17064 74.22973 19.02498 -4.29738 18.06636 -5.62636 -7.89324 29.6842 -62.52906 -18.46893 -1.53329 112.98974 -10.48078 -0.78163 -127.90909 -14.69089 -0.19096 -2.65836 79.50203 10.21122 -1.52545 -45.5786 -18.75341 1.12716 3.34007
-0.61943 -0.30519 0.25317 388.41064 2.1638 -3.87786 16.00745 -0.85033 -0.90165 9.51601 -4.33124 -2.11994 37.31284 14.86313 29.61844 128.28094 74.05994 19.02877 -4.32668 17.0871 -5.33207 -8.36067 30.81377 -62.30626 -18.74878 -1.52275 113.03689 -10.36231 -0.35193 -128.78697 -14.54217 -0.05892 -2.58846 79.17982 10.28958 -1.79429 -44.56149 -18.80305 1.13198 3.34509
-0.61836 -0.30431 0.25221 388.33585 1.74829 -4.04363 16.20212 -0.7603 -0.90657 9.70344 -3.99822 -2.11994 37.47576 14.85905 29.43735 128.38717 73.92163 18.99893 -4.3535 16.0298 -5.025 -8.89371 32.04551 -61.96349 -19.10501 -1.52352 113.05283 -10.22913 0.08345 -129.74635 -14.34752 0.0848 -2.51131 78.88539 10.34885 -2.19562 -43.46911 -18.92461 1.13615 3.35337
-0.61742 -0.30356 0.25115 388.28364 1.41379 -4.21551 16.31178 -0.65149 -0.97531 9.85759 -3.64071 -2.11994 37.55107 14.85665 29.28875 128.5093 73.72416 19.02655 -4.38731 15.18843 -4.7561 -9.12404 32.96862 -61.63612 -19.40528 -1.53063 113.13563 -10.11803 0.52739 -130.52434 -14.24937 0.21012 -2.44664 78.52742 10.45637 -2.31356 -42.58237 -18.88962 1.14447 3.35597
-0.61686 -0.30318 0.24981 388.30142 1.29671 -4.40452 16.2061 -0.4889 -1.22409 9.91323 -3.21756 -2.11994 37.39849 14.85892 29.22388 128.65742 73.3347 19.24321 -4.44146 14.88141 -4.58263 -8.64833 33.12235 -61.57305 -19.45411 -1.5261 113.4061 -10.07658 0.97838 -130.79501 -14.4244 0.28029 -2.41847 77.96616 10.69389 -1.62459 -42.19354 -18.40017 1.1634 3.34139
-0.61644 -0.30294 0.24839 388.34238 1.26115 -4.59825 16.01441 -0.30882 -1.53357 9.93341 -2.77212 -2.11994 37.15546 14.86284 29.19163 128.82274 72.88975 19.51547 -4.5019 14.78977 -4.44693 -7.89151 32.97631 -61.55464 -19.43409 -1.5243 113.74255 -10.05882 1.43227 -130.8886 -14.69536 0.33076 -2.40338 77.3491 10.97742 -0.65861 -42.00835 -17.76069 1.18559 3.32101
-0.61597 -0.30265 0.24704 388.37151 1.1898 -4.78701 15.85586 -0.13985 -1.80701 9.96797 -2.34079 -2.11994 36.9457 14.8659 29.14519 128.98831 72.48766 19.7488 -4.55742 14.61072 -4.29442 -7.2799 32.97062 -61.5172 -19.4454 -1.5215 114.04639 -10.03033 1.88004 -131.0783 -14.91824 0.38908 -2.3828 76.78357 11.23579 0.15689 -41.74515 -17.21211 1.20459 3.3035
-0.61544 -0.30229 0.24554 388.40546 1.11384 -4.98845 15.72094 0.04321 -2.11732 10.01109 -1.89119 -2.11994 36.76874 14.86941 29.09573 129.12158 72.01335 20.03765 -4.62168 14.39345 -4.14129 -6.57381 32.9372 -61.44367 -19.47027 -1.52161 114.36319 -10 2.35325 -131.2029 -15.16073 0.45295 -2.35996 76.1084 11.51357 1.07748 -41.43006 -16.56725 1.23108 3.2851
-0.61506 -0.3021 0.24434 388.43495 1.06646 -5.16419 15.51697 0.20053 -2.36487 10.02755 -1.47515 -2.11994 36.50213 14.87239 29.0613 129.32473 71.67384 20.22552 -4.66945 14.30515 -3.99849 -6.00417 32.89231 -61.46621 -19.44563 -1.51501 114.6665 -9.98013 2.77075 -131.41802 -15.38432 0.50022 -2.34504 75.64595 11.76118 1.84481 -41.26557 -16.08638 1.24282 3.26719
